<?xml version="1.0" encoding="UTF-8" standalone="no"?>
<!-- Created with Inkscape (http://www.inkscape.org/) -->

<svg
   xmlns:dc="http://purl.org/dc/elements/1.1/"
   xmlns:cc="http://creativecommons.org/ns#"
   xmlns:rdf="http://www.w3.org/1999/02/22-rdf-syntax-ns#"
   xmlns:svg="http://www.w3.org/2000/svg"
   xmlns="http://www.w3.org/2000/svg"
   xmlns:sodipodi="http://sodipodi.sourceforge.net/DTD/sodipodi-0.dtd"
   xmlns:inkscape="http://www.inkscape.org/namespaces/inkscape"
   width="210mm"
   height="297mm"
   viewBox="0 0 210 297"
   version="1.1"
   id="svg8"
   inkscape:version="0.92.3 (2405546, 2018-03-11)"
   sodipodi:docname="body_3mm.svg">
  <defs
     id="defs2" />
  <sodipodi:namedview
     id="base"
     pagecolor="#ffffff"
     bordercolor="#666666"
     borderopacity="1.0"
     inkscape:pageopacity="0.0"
     inkscape:pageshadow="2"
     inkscape:zoom="1.1081588"
     inkscape:cx="231.07639"
     inkscape:cy="961.44064"
     inkscape:document-units="mm"
     inkscape:current-layer="layer1"
     showgrid="false"
     inkscape:window-width="1366"
     inkscape:window-height="705"
     inkscape:window-x="-8"
     inkscape:window-y="-8"
     inkscape:window-maximized="1" />
  <metadata
     id="metadata5">
    <rdf:RDF>
      <cc:Work
         rdf:about="">
        <dc:format>image/svg+xml</dc:format>
        <dc:type
           rdf:resource="http://purl.org/dc/dcmitype/StillImage" />
        <dc:title />
      </cc:Work>
    </rdf:RDF>
  </metadata>
  <g
     inkscape:label="圖層 1"
     inkscape:groupmode="layer"
     id="layer1">
    <path
       style="opacity:1;fill:none;fill-opacity:1;stroke:#000000;stroke-width:0.08168723;stroke-linejoin:round;stroke-miterlimit:4;stroke-dasharray:none;stroke-dashoffset:0;stroke-opacity:1"
       d="m 93.193697,52.843807 h 15.918403 3.00034 v -19.90059 h -3.00034 v 11.98221 H 93.193697 Z"
       id="rect1028"
       inkscape:connector-curvature="0" />
    <circle
       transform="matrix(0,1,1,0,0,0)"
       style="fill:none;fill-rule:evenodd;stroke:#000000;stroke-width:0.08800796;stroke-miterlimit:4;stroke-dasharray:none;stroke-opacity:1"
       id="circle1037"
       cx="50.427876"
       cy="96.991753"
       r="0.95599604" />
    <path
       inkscape:connector-curvature="0"
       id="path2455"
       d="m 86.720077,31.359341 v 2.911449 h 4.553589 v 7.744751 h 9.804994 V 34.27079 h 4.5524 v -2.911449 z"
       style="fill:none;stroke:#0000d8;stroke-width:0.08885758;stroke-miterlimit:4;stroke-dasharray:none;stroke-opacity:1"
       sodipodi:nodetypes="ccccccccc" />
    <circle
       transform="scale(-1,1)"
       style="fill:none;fill-rule:evenodd;stroke:#0000d8;stroke-width:0.08800796;stroke-miterlimit:4;stroke-dasharray:none;stroke-opacity:1"
       id="circle2457"
       cx="-95.830917"
       cy="40.033718"
       r="0.95599604" />
    <path
       sodipodi:nodetypes="ccccccccc"
       style="fill:none;stroke:#0000d8;stroke-width:0.08885758;stroke-miterlimit:4;stroke-dasharray:none;stroke-opacity:1"
       d="m 86.720077,17.071832 v 2.911449 h 4.553589 v 7.744751 h 9.804994 v -7.744751 h 4.5524 v -2.911449 z"
       id="path6566"
       inkscape:connector-curvature="0" />
    <circle
       r="0.95599604"
       cy="25.746204"
       cx="-95.830917"
       id="circle6568"
       style="fill:none;fill-rule:evenodd;stroke:#0000d8;stroke-width:0.08800796;stroke-miterlimit:4;stroke-dasharray:none;stroke-opacity:1"
       transform="scale(-1,1)" />
    <path
       style="opacity:1;fill:none;fill-opacity:1;stroke:#000000;stroke-width:0.1538564;stroke-linejoin:round;stroke-miterlimit:4;stroke-dasharray:none;stroke-dashoffset:0;stroke-opacity:1"
       d="m 19.814597,19.251243 c -1.183899,0 -2.137014,1.161892 -2.137014,2.605474 v 3.130662 1.771312 4.072031 3.751619 4.041314 c 0,0.256974 0.03148,0.504836 0.08782,0.739 -0.03434,0.192196 -0.05269,0.391836 -0.05269,0.596263 v 2.462724 c 0,1.599038 1.103915,2.886745 2.475363,2.886745 h 56.93744 c 1.371442,0 2.475864,-1.287707 2.475864,-2.886745 v -2.462724 c 0,-0.313927 -0.0442,-0.615493 -0.122943,-0.898006 0.0196,-0.142396 0.0326,-0.287859 0.0326,-0.437257 v -5.480167 -2.316981 -5.839128 -3.130662 c 0,-1.443582 -0.953114,-2.605474 -2.137013,-2.605474 z"
       id="path6574"
       inkscape:connector-curvature="0" />
    <rect
       y="41.501026"
       x="22.682398"
       height="1.5245777"
       width="51.824577"
       id="rect6576"
       style="fill:none;fill-opacity:1;stroke:#000000;stroke-width:0.17542225;stroke-miterlimit:4;stroke-dasharray:none;stroke-opacity:1" />
    <rect
       y="27.22204"
       x="22.625967"
       height="2.9369693"
       width="8.1369696"
       id="rect6578"
       style="opacity:1;fill:none;fill-opacity:1;stroke:#000000;stroke-width:0.06303076;stroke-linejoin:round;stroke-miterlimit:4;stroke-dasharray:none;stroke-dashoffset:0;stroke-opacity:1" />
    <path
       inkscape:connector-curvature="0"
       style="opacity:1;fill:none;fill-opacity:1;stroke:#000000;stroke-width:0.06162804;stroke-linejoin:round;stroke-miterlimit:4;stroke-dasharray:none;stroke-dashoffset:0;stroke-opacity:1"
       d="m 60.643374,22.914868 c 0,-0.22682 -0.18246,-0.40928 -0.40928,-0.40928 h -5.1976 c -0.0394,0 -0.0767,0.007 -0.11266,0.0176 h -3.886582 a 2.469186,2.4691858 0 0 0 -2.27015,-1.50482 2.469186,2.4691858 0 0 0 -2.27273,1.50482 h -4.13928 c -0.036,-0.0103 -0.0733,-0.0176 -0.11266,-0.0176 h -5.19761 c -0.22682,0 -0.40929,0.18246 -0.40929,0.40928 v 1.15808 c 0,0.22681 0.18247,0.40928 0.40929,0.40928 h 5.19761 c 0.0327,0 0.0641,-0.005 0.0946,-0.0119 h 4.16771 a 2.469186,2.4691858 0 0 0 2.26239,1.48674 2.469186,2.4691858 0 0 0 2.263949,-1.48674 h 3.910873 c 0.0305,0.007 0.0618,0.0119 0.0946,0.0119 h 5.19761 c 0.22681,0 0.40927,-0.18247 0.40927,-0.40928 z"
       id="path6582" />
    <rect
       style="fill:none;fill-opacity:1;stroke:#000000;stroke-width:0.12482744;stroke-miterlimit:4;stroke-dasharray:none;stroke-opacity:1"
       id="rect4510"
       width="31.875172"
       height="33.875172"
       x="39.003708"
       y="48.652832" />
    <path
       id="path2482-6"
       d="m 43.681781,62.199674 h 0.0475 v -2.54817 h 22.456494 v 11.87783 H 43.729281 v -2.6386 h -0.0475 z"
       style="fill:none;fill-opacity:1;stroke:#000000;stroke-width:0.1;stroke-miterlimit:4;stroke-dasharray:none;stroke-opacity:1"
       inkscape:connector-curvature="0" />
    <circle
       transform="rotate(-90)"
       style="fill:none;fill-rule:evenodd;stroke:#000000;stroke-width:0.08800796;stroke-miterlimit:4;stroke-dasharray:none;stroke-opacity:1"
       id="circle2484-9"
       cx="-65.451012"
       cy="40.489281"
       r="0.95599604" />
    <circle
       r="0.95599604"
       cy="69.393288"
       cx="-65.451012"
       id="circle2486-0"
       style="fill:none;fill-rule:evenodd;stroke:#000000;stroke-width:0.08800796;stroke-miterlimit:4;stroke-dasharray:none;stroke-opacity:1"
       transform="rotate(-90)" />
    <rect
       y="76.666901"
       x="49.9981"
       height="2.8462822"
       width="9.846282"
       id="rect4589"
       style="fill:none;fill-opacity:1;stroke:#000000;stroke-width:0.15371807;stroke-miterlimit:4;stroke-dasharray:none;stroke-opacity:1" />
    <rect
       style="fill:none;fill-opacity:1;stroke:#000000;stroke-width:0.15371807;stroke-miterlimit:4;stroke-dasharray:none;stroke-opacity:1"
       id="rect4601"
       width="9.846282"
       height="2.8462822"
       x="49.998199"
       y="-54.51392"
       transform="scale(1,-1)" />
    <path
       inkscape:connector-curvature="0"
       style="fill:none;fill-opacity:1;stroke:#000000;stroke-width:0.11112169;stroke-miterlimit:4;stroke-dasharray:none;stroke-opacity:1"
       d="m 85.391311,57.299098 -1.45417,5.3e-4 c -0.0411,0 -0.0806,0.006 -0.11989,0.0119 h -0.0615 v 0.0124 c -0.32514,0.081 -0.56534,0.37154 -0.56534,0.72244 v 4.336172 c 0,0.35089 0.2402,0.64145 0.56534,0.72243 v 1.13688 h -0.0713 c 0.0462,0.16456 0.0729,0.33754 0.0729,0.51729 v 17.50332 a 7.4064326,6.8306976 0 0 0 -0.14934,1.36271 7.4064326,6.8306976 0 0 0 0.14934,1.33273 v 2.04019 c -0.003,0.002 -0.006,0.004 -0.01,0.006 h 0.84077 a 7.4064326,6.8306976 0 0 0 6.42597,3.45198 7.4064326,6.8306976 0 0 0 6.43061,-3.45198 h 0.69661 0.13694 v -2.05311 a 7.4064326,6.8306976 0 0 0 0.14263,-1.3255 7.4064326,6.8306976 0 0 0 -0.14263,-1.30328 V 64.75944 c 0,-0.17974 0.0266,-0.35272 0.0729,-0.51728 h -0.0538 v -1.14464 c 0.31239,-0.0894 0.54106,-0.37281 0.54106,-0.71468 v -4.336192 c 0,-0.34187 -0.22867,-0.62525 -0.54106,-0.71468 v -0.0207 h -0.0858 c -0.0393,-0.006 -0.0788,-0.0119 -0.11989,-0.0119 h -1.45468 c -0.0411,0 -0.0806,0.006 -0.11989,0.0119 h -11.00604 c -0.0391,-0.006 -0.0789,-0.0119 -0.11989,-0.0119 z"
       id="rect2299-6-2" />
    <path
       inkscape:connector-curvature="0"
       style="fill:none;fill-opacity:1;stroke:#000000;stroke-width:0.1;stroke-miterlimit:4;stroke-dasharray:none;stroke-opacity:1"
       d="m 87.661951,63.1359 v 0.0475 h -2.54817 v 22.45651 h 11.87783 V 63.1834 h -2.6386 v -0.0475 z"
       id="path2301-8-9" />
    <circle
       r="0.95599604"
       cy="59.94339"
       cx="-90.913292"
       id="circle2303-9-7"
       style="fill:none;fill-rule:evenodd;stroke:#000000;stroke-width:0.08800796;stroke-miterlimit:4;stroke-dasharray:none;stroke-opacity:1"
       transform="scale(-1,1)" />
    <circle
       transform="scale(-1,1)"
       style="fill:none;fill-rule:evenodd;stroke:#000000;stroke-width:0.08800796;stroke-miterlimit:4;stroke-dasharray:none;stroke-opacity:1"
       id="circle2307-1-1"
       cx="-90.913292"
       cy="88.847374"
       r="0.95599604" />
    <path
       id="path4153"
       d="m 103.44289,57.541398 -1.45417,5.29e-4 c -0.0411,0 -0.0806,0.006 -0.11989,0.0119 h -0.0615 v 0.0124 c -0.32514,0.081 -0.56534,0.371541 -0.56534,0.722441 v 4.336172 c 0,0.35089 0.2402,0.64145 0.56534,0.72243 v 1.13688 h -0.0713 c 0.0462,0.16456 0.0729,0.33754 0.0729,0.51729 v 17.50332 a 7.4064326,6.8306976 0 0 0 -0.14934,1.36271 7.4064326,6.8306976 0 0 0 0.14934,1.33273 v 2.04019 c -0.003,0.002 -0.006,0.004 -0.01,0.006 h 0.84077 a 7.4064326,6.8306976 0 0 0 6.42597,3.45198 7.4064326,6.8306976 0 0 0 6.43061,-3.45198 h 0.6966 0.13694 v -2.05311 a 7.4064326,6.8306976 0 0 0 0.14263,-1.3255 7.4064326,6.8306976 0 0 0 -0.14263,-1.30328 V 65.00174 c 0,-0.17974 0.0266,-0.35272 0.0729,-0.51728 h -0.0538 v -1.14464 c 0.31238,-0.0894 0.54105,-0.37281 0.54105,-0.71468 v -4.336192 c 0,-0.34187 -0.22867,-0.62525 -0.54105,-0.71468 v -0.0207 h -0.0858 c -0.0393,-0.006 -0.0788,-0.0119 -0.11989,-0.0119 h -1.45469 c -0.0411,0 -0.0806,0.006 -0.11989,0.0119 h -11.00604 c -0.0391,-0.006 -0.0789,-0.0119 -0.11989,-0.0119 z"
       style="fill:none;fill-opacity:1;stroke:#000000;stroke-width:0.11112169;stroke-miterlimit:4;stroke-dasharray:none;stroke-opacity:1"
       inkscape:connector-curvature="0" />
    <path
       id="path4155"
       d="m 105.71353,63.3782 v 0.0475 h -2.54816 v 22.45651 h 11.87782 V 63.4257 h -2.6386 v -0.0475 z"
       style="fill:none;fill-opacity:1;stroke:#000000;stroke-width:0.1;stroke-miterlimit:4;stroke-dasharray:none;stroke-opacity:1"
       inkscape:connector-curvature="0" />
    <circle
       transform="scale(-1,1)"
       style="fill:none;fill-rule:evenodd;stroke:#000000;stroke-width:0.08800796;stroke-miterlimit:4;stroke-dasharray:none;stroke-opacity:1"
       id="circle4157"
       cx="-108.96487"
       cy="60.185677"
       r="0.95599604" />
    <circle
       r="0.95599604"
       cy="89.089699"
       cx="-108.96487"
       id="circle4159"
       style="fill:none;fill-rule:evenodd;stroke:#000000;stroke-width:0.08800796;stroke-miterlimit:4;stroke-dasharray:none;stroke-opacity:1"
       transform="scale(-1,1)" />
  </g>
</svg>
