<?xml version="1.0" encoding="UTF-8" standalone="no"?>
<!-- Created with Inkscape (http://www.inkscape.org/) -->

<svg
   xmlns:dc="http://purl.org/dc/elements/1.1/"
   xmlns:cc="http://creativecommons.org/ns#"
   xmlns:rdf="http://www.w3.org/1999/02/22-rdf-syntax-ns#"
   xmlns:svg="http://www.w3.org/2000/svg"
   xmlns="http://www.w3.org/2000/svg"
   xmlns:sodipodi="http://sodipodi.sourceforge.net/DTD/sodipodi-0.dtd"
   xmlns:inkscape="http://www.inkscape.org/namespaces/inkscape"
   width="210mm"
   height="297mm"
   viewBox="0 0 210 297"
   version="1.1"
   id="svg2300"
   inkscape:version="0.92.3 (2405546, 2018-03-11)"
   sodipodi:docname="外輪_6mm.svg">
  <sodipodi:namedview
     id="base"
     pagecolor="#ffffff"
     bordercolor="#666666"
     borderopacity="1.0"
     inkscape:pageopacity="0.0"
     inkscape:pageshadow="2"
     inkscape:zoom="1.3248454"
     inkscape:cx="389.76471"
     inkscape:cy="857.14286"
     inkscape:document-units="mm"
     inkscape:current-layer="layer1"
     showgrid="false"
     inkscape:window-width="1440"
     inkscape:window-height="837"
     inkscape:window-x="-8"
     inkscape:window-y="-8"
     inkscape:window-maximized="1" />
  <defs
     id="defs2294" />
  <metadata
     id="metadata2297">
    <rdf:RDF>
      <cc:Work
         rdf:about="">
        <dc:format>image/svg+xml</dc:format>
        <dc:type
           rdf:resource="http://purl.org/dc/dcmitype/StillImage" />
        <dc:title />
      </cc:Work>
    </rdf:RDF>
  </metadata>
  <g
     inkscape:label="圖層 1"
     inkscape:groupmode="layer"
     id="layer1">
    <g
       id="g2199"
       inkscape:label="Gear360"
       transform="translate(103.12523,70.214256)">
      <path
         id="path2197"
         style="fill:none;stroke:#000000;stroke-width:0.26458332"
         d="m 62.67435,-0.32897 0.35041,0.05397 0.35039,0.06578 v 0.41844 l -0.35039,0.06578 -0.35041,0.05397 -0.0038,0.43593 0.34941,0.06008 0.34919,0.07188 -0.0073,0.41838 -0.35149,0.05965 -0.35129,0.04784 -0.01141,0.43581 0.3483,0.06616 0.34789,0.07797 -0.0146,0.41818 -0.35248,0.05351 -0.35208,0.04171 -0.01901,0.43554 0.3471,0.07223 0.34647,0.08403 -0.0219,0.41786 -0.35336,0.04735 -0.35275,0.03556 -0.02661,0.43514 0.34579,0.07828 0.34495,0.09006 -0.02919,0.41742 -0.35413,0.04117 -0.35331,0.0294 -0.03421,0.43461 0.34437,0.0843 0.34333,0.09607 -0.03647,0.41684 -0.3548,0.03499 -0.35377,0.02322 -0.04179,0.43395 0.34285,0.0903 0.3416,0.10205 -0.04374,0.41614 -0.35535,0.02879 -0.35413,0.01705 -0.04935,0.43315 0.34122,0.09627 0.33976,0.10799 -0.05099,0.41532 -0.3558,0.02259 -0.35437,0.01086 -0.0569,0.43222 0.33948,0.10221 0.33783,0.1139 -0.05824,0.41437 -0.35614,0.01637 -0.3545,0.00468 -0.06444,0.43116 0.33765,0.10812 0.33579,0.11979 -0.06546,0.41328 -0.35637,0.01016 -0.35453,-0.0015 -0.07196,0.42998 0.33571,0.11399 0.33365,0.12563 -0.07266,0.41208 -0.35649,0.0039 -0.35445,-0.0077 -0.07945,0.42865 0.33367,0.11983 0.33141,0.13144 -0.07985,0.41074 -0.35651,-0.0023 -0.35426,-0.01389 -0.08691,0.4272 0.33152,0.12564 0.32906,0.1372 -0.08699,0.40929 -0.35642,-0.0085 -0.35397,-0.02006 -0.09435,0.42562 0.32928,0.13141 0.32662,0.14291 -0.09413,0.40771 -0.35621,-0.01472 -0.35357,-0.02624 -0.10177,0.42391 0.32694,0.13713 0.32408,0.14859 -0.10123,0.40601 -0.3559,-0.02094 -0.35306,-0.03241 -0.10915,0.42207 0.3245,0.14282 0.32143,0.15423 -0.1083,0.40418 -0.35548,-0.02715 -0.35243,-0.03857 -0.11651,0.4201 0.32196,0.14846 0.31869,0.15982 -0.11534,0.40222 -0.35495,-0.03335 -0.35171,-0.0447 -0.12382,0.418 0.31932,0.15405 0.31585,0.16536 -0.12234,0.40015 -0.35432,-0.03954 -0.35087,-0.05084 -0.13109,0.41578 0.31658,0.1596 0.31292,0.17084 -0.12931,0.39796 -0.35357,-0.04572 -0.34993,-0.05695 -0.13833,0.41342 0.31374,0.16511 0.30989,0.17627 -0.13623,0.39564 -0.35272,-0.05188 -0.34888,-0.06305 -0.14553,0.41095 0.31082,0.17055 0.30676,0.18166 -0.14311,0.3932 -0.35176,-0.05803 -0.34773,-0.06913 -0.15268,0.40834 0.30779,0.17596 0.30355,0.18698 -0.14995,0.39065 -0.3507,-0.06416 -0.34647,-0.07519 -0.15978,0.40562 0.30468,0.1813 0.30023,0.19225 -0.15674,0.38796 -0.34953,-0.07027 -0.3451,-0.08122 -0.16684,0.40277 0.30147,0.18659 0.29684,0.19746 -0.1635,0.38517 -0.34824,-0.07636 -0.34364,-0.08723 -0.17384,0.39979 0.29816,0.19182 0.29335,0.20262 -0.17019,0.38226 -0.34686,-0.08243 -0.34206,-0.09322 -0.18079,0.3967 0.29477,0.197 0.28977,0.2077 -0.17684,0.37923 -0.34537,-0.08846 -0.34038,-0.09918 -0.18768,0.39349 0.29128,0.20211 0.2861,0.21272 -0.18343,0.37609 -0.34377,-0.09448 -0.3386,-0.1051 -0.19452,0.39015 0.28771,0.20717 0.28234,0.21768 -0.18997,0.37283 -0.34207,-0.10046 -0.33671,-0.111 -0.2013,0.3867 0.28405,0.21215 0.2785,0.22258 -0.19644,0.36946 -0.34027,-0.10642 -0.33472,-0.11685 -0.20802,0.38312 0.28031,0.21708 0.27457,0.22741 -0.20286,0.36597 -0.33836,-0.11234 -0.33263,-0.12268 -0.21467,0.37944 0.27647,0.22193 0.27056,0.23217 -0.20922,0.36238 -0.33634,-0.11823 -0.33044,-0.12847 -0.22126,0.37563 0.27256,0.22673 0.26647,0.23685 -0.21552,0.35867 -0.33422,-0.12408 -0.32815,-0.13421 -0.22779,0.37171 0.26856,0.23145 0.2623,0.24147 -0.22174,0.35485 -0.33201,-0.12989 -0.32576,-0.13992 -0.23424,0.36768 0.26449,0.2361 0.25804,0.24601 -0.2279,0.35093 -0.32969,-0.13567 -0.32327,-0.14559 -0.24062,0.36354 0.26032,0.24068 0.25371,0.25048 -0.23399,0.3469 -0.32727,-0.14141 -0.32068,-0.1512 -0.24693,0.35928 0.25608,0.24519 0.2493,0.25486 -0.24001,0.34277 -0.32475,-0.1471 -0.31799,-0.15677 -0.25316,0.35491 0.25176,0.24962 0.24481,0.25918 -0.24595,0.33852 -0.32214,-0.15274 -0.3152,-0.1623 -0.25932,0.35044 0.24737,0.25398 0.24025,0.26341 -0.25182,0.33418 -0.31943,-0.15834 -0.31232,-0.16778 -0.26539,0.34587 0.24289,0.25825 0.23562,0.26756 -0.25761,0.32974 -0.31662,-0.16389 -0.30935,-0.17321 -0.27138,0.34119 0.23835,0.26245 0.23091,0.27163 -0.26333,0.32519 -0.31371,-0.16939 -0.30627,-0.17858 -0.2773,0.3364 0.23373,0.26657 0.22614,0.27562 -0.26897,0.32054 -0.3107,-0.17483 -0.30311,-0.1839 -0.28313,0.3315 0.22904,0.27062 0.2213,0.27952 -0.27452,0.3158 -0.30761,-0.18023 -0.29985,-0.18916 -0.28888,0.32651 0.22429,0.27457 0.21638,0.28335 -0.27999,0.31096 -0.30441,-0.18558 -0.29651,-0.19436 -0.29452,0.32142 0.21946,0.27844 0.2114,0.28708 -0.28537,0.30602 -0.30113,-0.19086 -0.29307,-0.1995 -0.30009,0.31623 0.21457,0.28223 0.20636,0.29072 -0.29067,0.301 -0.29775,-0.19609 -0.28955,-0.20459 -0.30557,0.31095 0.20962,0.28593 0.20125,0.29428 -0.29588,0.29588 -0.29428,-0.20125 -0.28593,-0.20962 -0.31095,0.30557 0.20459,0.28955 0.19609,0.29775 -0.301,0.29067 -0.29072,-0.20636 -0.28223,-0.21457 -0.31623,0.30009 0.1995,0.29307 0.19086,0.30113 -0.30602,0.28537 -0.28708,-0.2114 -0.27844,-0.21946 -0.32142,0.29452 0.19436,0.29651 0.18558,0.30441 -0.31096,0.27999 -0.28335,-0.21638 -0.27457,-0.22429 -0.32651,0.28888 0.18916,0.29985 0.18023,0.30761 -0.3158,0.27452 -0.27952,-0.2213 -0.27062,-0.22904 -0.3315,0.28313 0.1839,0.30311 0.17483,0.3107 -0.32054,0.26897 -0.27562,-0.22614 -0.26657,-0.23373 -0.3364,0.2773 0.17858,0.30627 0.16939,0.31371 -0.32519,0.26333 -0.27163,-0.23091 -0.26245,-0.23835 -0.34119,0.27138 0.17321,0.30935 0.16389,0.31662 -0.32974,0.25761 -0.26756,-0.23562 -0.25825,-0.24289 -0.34587,0.26539 0.16778,0.31232 0.15834,0.31943 -0.33418,0.25182 -0.26341,-0.24025 -0.25398,-0.24737 -0.35044,0.25932 0.1623,0.3152 0.15274,0.32214 -0.33852,0.24595 -0.25918,-0.24481 -0.24962,-0.25176 -0.35491,0.25316 0.15677,0.31799 0.1471,0.32475 -0.34277,0.24001 -0.25486,-0.2493 -0.24519,-0.25608 -0.35928,0.24693 0.1512,0.32068 0.14141,0.32727 -0.3469,0.23399 -0.25048,-0.25371 -0.24068,-0.26032 -0.36354,0.24062 0.14559,0.32327 0.13567,0.32969 -0.35093,0.2279 -0.24601,-0.25804 -0.2361,-0.26449 -0.36768,0.23424 0.13992,0.32576 0.12989,0.33201 -0.35485,0.22174 -0.24147,-0.2623 -0.23145,-0.26856 -0.37171,0.22779 0.13421,0.32815 0.12408,0.33422 -0.35867,0.21552 -0.23685,-0.26647 -0.22673,-0.27256 -0.37563,0.22126 0.12847,0.33044 0.11823,0.33634 -0.36238,0.20922 -0.23217,-0.27056 -0.22193,-0.27647 -0.37944,0.21467 0.12268,0.33263 0.11234,0.33836 -0.36597,0.20286 -0.22741,-0.27457 -0.21708,-0.28031 -0.38312,0.20802 0.11685,0.33472 0.10642,0.34027 -0.36946,0.19644 -0.22258,-0.2785 -0.21215,-0.28405 -0.3867,0.2013 0.111,0.33671 0.10046,0.34207 -0.37283,0.18997 -0.21768,-0.28234 -0.20717,-0.28771 -0.39015,0.19452 0.1051,0.3386 0.09448,0.34377 -0.37609,0.18343 -0.21272,-0.2861 -0.20211,-0.29128 -0.39349,0.18768 0.09918,0.34038 0.08846,0.34537 -0.37923,0.17684 -0.2077,-0.28977 -0.197,-0.29477 -0.3967,0.18079 0.09322,0.34206 0.08243,0.34686 -0.38226,0.17019 -0.20262,-0.29335 -0.19182,-0.29816 -0.39979,0.17384 0.08723,0.34364 0.07636,0.34824 -0.38517,0.1635 -0.19746,-0.29684 -0.18659,-0.30147 -0.40277,0.16684 0.08122,0.3451 0.07027,0.34953 -0.38796,0.15674 -0.19225,-0.30023 -0.1813,-0.30468 -0.40562,0.15978 0.07519,0.34647 0.06416,0.3507 -0.39065,0.14995 -0.18698,-0.30355 -0.17596,-0.30779 -0.40834,0.15268 0.06913,0.34773 0.05803,0.35176 -0.3932,0.14311 -0.18166,-0.30676 -0.17055,-0.31082 -0.41095,0.14553 0.06305,0.34888 0.05188,0.35272 -0.39564,0.13623 -0.17627,-0.30989 -0.16511,-0.31374 -0.41342,0.13833 0.05695,0.34993 0.04572,0.35357 -0.39796,0.12931 -0.17084,-0.31292 -0.1596,-0.31658 -0.41578,0.13109 0.05084,0.35087 0.03954,0.35432 -0.40015,0.12234 -0.16536,-0.31585 -0.15405,-0.31932 -0.418,0.12382 0.0447,0.35171 0.03335,0.35495 -0.40222,0.11534 -0.15982,-0.31869 -0.14846,-0.32196 -0.4201,0.11651 0.03857,0.35243 0.02715,0.35548 -0.40418,0.1083 -0.15423,-0.32143 -0.14282,-0.3245 -0.42207,0.10915 0.03241,0.35306 0.02094,0.3559 -0.40601,0.10123 -0.14859,-0.32408 -0.13713,-0.32694 -0.42391,0.10177 0.02624,0.35357 0.01472,0.35621 -0.40771,0.09413 -0.14291,-0.32662 -0.13141,-0.32928 -0.42562,0.09435 0.02006,0.35397 0.0085,0.35642 -0.40929,0.08699 -0.1372,-0.32906 -0.12564,-0.33152 -0.4272,0.08691 0.01389,0.35426 0.0023,0.35651 -0.41074,0.07985 -0.13144,-0.33141 -0.11983,-0.33367 -0.42865,0.07945 0.0077,0.35445 -0.0039,0.35649 -0.41208,0.07266 -0.12563,-0.33365 -0.11399,-0.33571 -0.42998,0.07196 0.0015,0.35453 -0.01019,0.3564 L 9.70742,62.62763 9.58763,62.29184 9.47951,61.95419 9.04835,62.01863 9.04367,62.37313 9.0273,62.72927 8.61293,62.78751 8.49903,62.44968 8.39682,62.1102 7.9646,62.1671 7.95374,62.52147 7.93115,62.87727 7.51583,62.92826 7.40784,62.5885 7.31157,62.24728 6.87842,62.29663 6.86137,62.65076 6.83258,63.00611 6.41644,63.04985 6.31439,62.70825 6.22409,62.3654 5.79014,62.40719 5.76692,62.76096 5.73193,63.11576 5.31509,63.15223 5.21902,62.8089 5.13472,62.46453 4.70011,62.49874 4.67071,62.85205 4.62954,63.20618 4.21212,63.23537 4.12206,62.89042 4.04378,62.54463 3.60864,62.57124 3.57308,62.92399 3.52573,63.27735 3.10787,63.29925 3.02384,62.95278 2.95161,62.60568 2.51607,62.62469 2.47436,62.97677 2.42085,63.32925 2.00267,63.34385 1.9247,62.99596 1.85854,62.64766 1.42273,62.65907 1.37489,63.01036 1.31524,63.36185 0.89686,63.36915 0.82498,63.01996 0.7649,62.67055 0.32897,62.67435 0.275,63.02476 0.20922,63.37515 h -0.41844 l -0.06578,-0.35039 -0.05397,-0.35041 -0.43593,-0.0038 -0.06008,0.34941 -0.07188,0.34919 -0.41838,-0.0073 -0.05965,-0.35149 -0.04784,-0.35129 -0.43581,-0.01141 -0.06616,0.3483 -0.07797,0.34789 -0.41818,-0.0146 -0.05351,-0.35248 -0.04171,-0.35208 -0.43554,-0.01901 -0.07223,0.3471 -0.08403,0.34647 -0.41786,-0.0219 -0.04735,-0.35336 -0.03556,-0.35275 -0.43514,-0.02661 -0.07828,0.34579 -0.09006,0.34495 -0.41742,-0.02919 -0.04117,-0.35413 -0.0294,-0.35331 -0.43461,-0.03421 -0.0843,0.34437 -0.09607,0.34333 -0.41684,-0.03647 -0.03499,-0.3548 -0.02322,-0.35377 -0.43395,-0.04179 -0.0903,0.34285 -0.10205,0.3416 -0.41614,-0.04374 -0.02879,-0.35535 -0.01705,-0.35413 -0.43315,-0.04935 -0.09627,0.34122 -0.10799,0.33976 -0.41532,-0.05099 -0.02259,-0.3558 -0.01086,-0.35437 -0.43222,-0.0569 -0.10221,0.33948 -0.1139,0.33783 -0.41437,-0.05824 -0.01637,-0.35614 -0.00468,-0.3545 -0.43116,-0.06444 -0.10812,0.33765 -0.11979,0.33579 -0.41328,-0.06546 -0.01016,-0.35637 0.0015,-0.35453 -0.42998,-0.07196 -0.11399,0.33571 -0.12563,0.33365 -0.41208,-0.07266 -0.0039,-0.35649 0.0077,-0.35445 -0.42865,-0.07945 -0.11983,0.33367 -0.13144,0.33141 -0.41074,-0.07985 0.0023,-0.35651 0.01389,-0.35426 -0.4272,-0.08691 -0.12564,0.33152 -0.1372,0.32906 -0.40929,-0.08699 0.0085,-0.35642 0.02006,-0.35397 -0.42562,-0.09435 -0.13141,0.32928 -0.14291,0.32662 -0.40771,-0.09413 0.01472,-0.35621 0.02624,-0.35357 -0.42391,-0.10177 -0.13713,0.32694 -0.14859,0.32408 -0.40601,-0.10123 0.02094,-0.3559 0.03241,-0.35306 -0.42207,-0.10915 -0.14282,0.3245 -0.15423,0.32143 -0.40418,-0.1083 0.02715,-0.35548 0.03857,-0.35243 -0.4201,-0.11651 -0.14846,0.32196 -0.15982,0.31869 -0.40222,-0.11534 0.03335,-0.35495 0.0447,-0.35171 -0.418,-0.12382 -0.15405,0.31932 -0.16536,0.31585 -0.40015,-0.12234 0.03954,-0.35432 0.05084,-0.35087 -0.41578,-0.13109 -0.1596,0.31658 -0.17084,0.31292 -0.39796,-0.12931 0.04572,-0.35357 0.05695,-0.34993 -0.41342,-0.13833 -0.16511,0.31374 -0.17627,0.30989 -0.39564,-0.13623 0.05188,-0.35272 0.06305,-0.34888 -0.41095,-0.14553 -0.17055,0.31082 -0.18166,0.30676 -0.3932,-0.14311 0.05803,-0.35176 0.06913,-0.34773 -0.40834,-0.15268 -0.17596,0.30779 -0.18698,0.30355 -0.39065,-0.14995 0.06416,-0.3507 0.07519,-0.34647 -0.40562,-0.15978 -0.1813,0.30468 -0.19225,0.30023 -0.38796,-0.15674 0.07027,-0.34953 0.08122,-0.3451 -0.40277,-0.16684 -0.18659,0.30147 -0.19746,0.29684 -0.38517,-0.1635 0.07636,-0.34824 0.08723,-0.34364 -0.39979,-0.17384 -0.19182,0.29816 -0.20262,0.29335 -0.38226,-0.17019 0.08243,-0.34686 0.09322,-0.34206 -0.3967,-0.18079 -0.197,0.29477 -0.2077,0.28977 -0.37923,-0.17684 0.08846,-0.34537 0.09918,-0.34038 -0.39349,-0.18768 -0.20211,0.29128 -0.21272,0.2861 -0.37609,-0.18343 0.09448,-0.34377 0.1051,-0.3386 -0.39015,-0.19452 -0.20717,0.28771 -0.21768,0.28234 -0.37283,-0.18997 0.10046,-0.34207 0.111,-0.33671 -0.3867,-0.2013 -0.21215,0.28405 -0.22258,0.2785 -0.36946,-0.19644 0.10642,-0.34027 0.11685,-0.33472 -0.38312,-0.20802 -0.21708,0.28031 -0.22741,0.27457 -0.36597,-0.20286 0.11234,-0.33836 0.12268,-0.33263 -0.37944,-0.21467 -0.22193,0.27647 -0.23217,0.27056 -0.36238,-0.20922 0.11823,-0.33634 0.12847,-0.33044 -0.37563,-0.22126 -0.22673,0.27256 -0.23685,0.26647 -0.35867,-0.21552 0.12408,-0.33422 0.13421,-0.32815 -0.37171,-0.22779 -0.23145,0.26856 -0.24147,0.2623 -0.35485,-0.22174 0.12989,-0.33201 0.13992,-0.32576 -0.36768,-0.23424 -0.2361,0.26449 -0.24601,0.25804 -0.35093,-0.2279 0.13567,-0.32969 0.14559,-0.32327 -0.36354,-0.24062 -0.24068,0.26032 -0.25048,0.25371 -0.3469,-0.23399 0.14141,-0.32727 0.1512,-0.32068 -0.35928,-0.24693 -0.24519,0.25608 -0.25486,0.2493 -0.34277,-0.24001 0.1471,-0.32475 0.15677,-0.31799 -0.35491,-0.25316 -0.24962,0.25176 -0.25918,0.24481 -0.33852,-0.24595 0.15274,-0.32214 0.1623,-0.3152 -0.35044,-0.25932 -0.25398,0.24737 -0.26341,0.24025 -0.33418,-0.25182 0.15834,-0.31943 0.16778,-0.31232 -0.34587,-0.26539 -0.25825,0.24289 -0.26756,0.23562 -0.32974,-0.25761 0.16389,-0.31662 0.17321,-0.30935 -0.34119,-0.27138 -0.26245,0.23835 -0.27163,0.23091 -0.32519,-0.26333 0.16939,-0.31371 0.17858,-0.30627 -0.3364,-0.2773 -0.26657,0.23373 -0.27562,0.22614 -0.32054,-0.26897 0.17483,-0.3107 0.1839,-0.30311 -0.3315,-0.28313 -0.27062,0.22904 -0.27952,0.2213 -0.3158,-0.27452 0.18023,-0.30761 0.18916,-0.29985 -0.32651,-0.28888 -0.27457,0.22429 -0.28335,0.21638 -0.31096,-0.27999 0.18558,-0.30441 0.19436,-0.29651 -0.32142,-0.29452 -0.27844,0.21946 -0.28708,0.2114 -0.30602,-0.28537 0.19086,-0.30113 0.1995,-0.29307 -0.31623,-0.30009 -0.28223,0.21457 -0.29072,0.20636 -0.301,-0.29067 0.19609,-0.29775 0.20459,-0.28955 -0.31095,-0.30557 -0.28593,0.20962 -0.29428,0.20125 -0.29588,-0.29588 0.20125,-0.29428 0.20962,-0.28593 -0.30557,-0.31095 -0.28955,0.20459 -0.29775,0.19609 -0.29067,-0.301 0.20636,-0.29072 0.21457,-0.28223 -0.30009,-0.31623 -0.29307,0.1995 -0.30113,0.19086 -0.28537,-0.30602 0.2114,-0.28708 0.21946,-0.27844 -0.29452,-0.32142 -0.29651,0.19436 -0.30441,0.18558 -0.27999,-0.31096 0.21638,-0.28335 0.22429,-0.27457 -0.28888,-0.32651 -0.29985,0.18916 -0.30761,0.18023 -0.27452,-0.3158 0.2213,-0.27952 0.22904,-0.27062 -0.28313,-0.3315 -0.30311,0.1839 -0.3107,0.17483 -0.26897,-0.32054 0.22614,-0.27562 0.23373,-0.26657 -0.2773,-0.3364 -0.30627,0.17858 -0.31371,0.16939 -0.26333,-0.32519 0.23091,-0.27163 0.23835,-0.26245 -0.27138,-0.34119 -0.30935,0.17321 -0.31662,0.16389 -0.25761,-0.32974 0.23562,-0.26756 0.24289,-0.25825 -0.26539,-0.34587 -0.31232,0.16778 -0.31943,0.15834 -0.25182,-0.33418 0.24025,-0.26341 0.24737,-0.25398 -0.25932,-0.35044 -0.3152,0.1623 -0.32214,0.15274 -0.24595,-0.33852 0.24481,-0.25918 0.25176,-0.24962 -0.25316,-0.35491 -0.31799,0.15677 -0.32475,0.1471 -0.24001,-0.34277 0.2493,-0.25486 0.25608,-0.24519 -0.24693,-0.35928 -0.32068,0.1512 -0.32727,0.14141 -0.23399,-0.3469 0.25371,-0.25048 0.26032,-0.24068 -0.24062,-0.36354 -0.32327,0.14559 -0.32969,0.13567 -0.2279,-0.35093 0.25804,-0.24601 0.26449,-0.2361 -0.23424,-0.36768 -0.32576,0.13992 -0.33201,0.12989 -0.22174,-0.35485 0.2623,-0.24147 0.26856,-0.23145 -0.22779,-0.37171 -0.32815,0.13421 -0.33422,0.12408 -0.21552,-0.35867 0.26647,-0.23685 0.27256,-0.22673 -0.22126,-0.37563 -0.33044,0.12847 -0.33634,0.11823 -0.20922,-0.36238 0.27056,-0.23217 0.27647,-0.22193 -0.21467,-0.37944 -0.33263,0.12268 -0.33836,0.11234 -0.20286,-0.36597 0.27457,-0.22741 0.28031,-0.21708 -0.20802,-0.38312 -0.33472,0.11685 -0.34027,0.10642 -0.19644,-0.36946 0.2785,-0.22258 0.28405,-0.21215 -0.2013,-0.3867 -0.33671,0.111 -0.34207,0.10046 -0.18997,-0.37283 0.28234,-0.21768 0.28771,-0.20717 -0.19452,-0.39015 -0.3386,0.1051 -0.34377,0.09448 -0.18343,-0.37609 0.2861,-0.21272 0.29128,-0.20211 -0.18768,-0.39349 -0.34038,0.09918 -0.34537,0.08846 -0.17684,-0.37923 0.28977,-0.2077 0.29477,-0.197 -0.18079,-0.3967 -0.34206,0.09322 -0.34686,0.08243 -0.17019,-0.38226 0.29335,-0.20262 0.29816,-0.19182 -0.17384,-0.39979 -0.34364,0.08723 -0.34824,0.07636 -0.1635,-0.38517 0.29684,-0.19746 0.30147,-0.18659 -0.16684,-0.40277 -0.3451,0.08122 -0.34953,0.07027 -0.15674,-0.38796 0.30023,-0.19225 0.30468,-0.1813 -0.15978,-0.40562 -0.34647,0.07519 -0.3507,0.06416 -0.14995,-0.39065 0.30355,-0.18698 0.30779,-0.17596 -0.15268,-0.40834 -0.34773,0.06913 -0.35176,0.05803 -0.14311,-0.3932 0.30676,-0.18166 0.31082,-0.17055 -0.14553,-0.41095 -0.34888,0.06305 -0.35272,0.05188 -0.13623,-0.39564 0.30989,-0.17627 0.31374,-0.16511 -0.13833,-0.41342 -0.34993,0.05695 -0.35357,0.04572 -0.12931,-0.39796 0.31292,-0.17084 0.31658,-0.1596 -0.13109,-0.41578 -0.35087,0.05084 -0.35432,0.03954 -0.12234,-0.40015 0.31585,-0.16536 0.31932,-0.15405 -0.12382,-0.418 -0.35171,0.0447 -0.35495,0.03335 -0.11534,-0.40222 0.31869,-0.15982 0.32196,-0.14846 -0.11651,-0.4201 -0.35243,0.03857 -0.35548,0.02715 -0.1083,-0.40418 0.32143,-0.15423 0.3245,-0.14282 -0.10915,-0.42207 -0.35306,0.03241 -0.3559,0.02094 -0.10123,-0.40601 0.32408,-0.14859 0.32694,-0.13713 -0.10177,-0.42391 -0.35357,0.02624 -0.35621,0.01472 -0.09413,-0.40771 0.32662,-0.14291 0.32928,-0.13141 -0.09435,-0.42562 -0.35397,0.02006 -0.35642,0.0085 -0.08699,-0.40929 0.32906,-0.1372 0.33152,-0.12564 -0.08691,-0.4272 -0.35426,0.01389 -0.35651,0.0023 -0.07985,-0.41074 0.33141,-0.13144 0.33367,-0.11983 -0.07945,-0.42865 -0.35445,0.0077 -0.35649,-0.0039 -0.07266,-0.41208 0.33365,-0.12563 0.33571,-0.11399 -0.07196,-0.42998 -0.35453,0.0015 -0.35637,-0.01016 -0.06546,-0.41328 0.33579,-0.11979 0.33765,-0.10812 -0.06444,-0.43116 -0.3545,-0.00468 -0.35614,-0.01637 -0.05824,-0.41437 0.33783,-0.1139 0.33948,-0.10221 -0.0569,-0.43222 -0.35437,-0.01086 -0.3558,-0.02259 -0.05099,-0.41532 0.33976,-0.10799 0.34122,-0.09627 -0.04935,-0.43315 -0.35413,-0.01705 -0.35535,-0.02879 -0.04374,-0.41614 0.3416,-0.10205 0.34285,-0.0903 -0.04179,-0.43395 -0.35377,-0.02322 -0.3548,-0.03499 -0.03647,-0.41684 0.34333,-0.09607 0.34437,-0.0843 -0.03421,-0.43461 -0.35331,-0.0294 -0.35413,-0.04117 -0.02919,-0.41742 0.34495,-0.09006 0.34579,-0.07828 -0.02661,-0.43514 -0.35275,-0.03556 -0.35336,-0.04735 -0.0219,-0.41786 0.34647,-0.08403 0.3471,-0.07223 -0.01901,-0.43554 -0.35208,-0.04171 -0.35248,-0.05351 -0.0146,-0.41818 0.34789,-0.07797 0.3483,-0.06616 -0.01141,-0.43581 -0.35129,-0.04784 -0.35149,-0.05965 -0.0073,-0.41838 0.34919,-0.07188 0.34941,-0.06008 -0.0038,-0.43593 -0.35041,-0.05397 -0.35039,-0.06578 v -0.41844 l 0.35039,-0.06578 0.35041,-0.05397 0.0038,-0.43593 -0.34941,-0.06008 -0.34919,-0.07188 0.0073,-0.41838 0.35149,-0.05965 0.35129,-0.04784 0.01141,-0.43581 -0.3483,-0.06616 -0.34789,-0.07797 0.0146,-0.41818 0.35248,-0.05351 0.35208,-0.04171 0.01901,-0.43554 -0.3471,-0.07223 -0.34647,-0.08403 0.0219,-0.41786 0.35336,-0.04735 0.35275,-0.03556 0.02661,-0.43514 -0.34579,-0.07828 -0.34495,-0.09006 0.02919,-0.41742 0.35413,-0.04117 0.35331,-0.0294 0.03421,-0.43461 -0.34437,-0.0843 -0.34333,-0.09607 0.03647,-0.41684 0.3548,-0.03499 0.35377,-0.02322 0.04179,-0.43395 -0.34285,-0.0903 -0.3416,-0.10205 0.04374,-0.41614 0.35535,-0.02879 0.35413,-0.01705 0.04935,-0.43315 -0.34122,-0.09627 -0.33976,-0.10799 0.05099,-0.41532 0.3558,-0.02259 0.35437,-0.01086 0.0569,-0.43222 -0.33948,-0.10221 -0.33783,-0.1139 0.05824,-0.41437 0.35614,-0.01637 0.3545,-0.00468 0.06444,-0.43116 -0.33765,-0.10812 -0.33579,-0.11979 0.06546,-0.41328 0.35637,-0.01016 0.35453,0.0015 0.07196,-0.42998 -0.33571,-0.11399 -0.33365,-0.12563 0.07266,-0.41208 0.35649,-0.0039 0.35445,0.0077 0.07945,-0.42865 -0.33367,-0.11983 -0.33141,-0.13144 0.07985,-0.41074 0.35651,0.0023 0.35426,0.01389 0.08691,-0.4272 -0.33152,-0.12564 -0.32906,-0.1372 0.08699,-0.40929 0.35642,0.0085 0.35397,0.02006 0.09435,-0.42562 -0.32928,-0.13141 -0.32662,-0.14291 0.09413,-0.40771 0.35621,0.01472 0.35357,0.02624 0.10177,-0.42391 -0.32694,-0.13713 -0.32408,-0.14859 0.10123,-0.40601 0.3559,0.02094 0.35306,0.03241 0.10915,-0.42207 -0.3245,-0.14282 -0.32143,-0.15423 0.1083,-0.40418 0.35548,0.02715 0.35243,0.03857 0.11651,-0.4201 -0.32196,-0.14846 -0.31869,-0.15982 0.11534,-0.40222 0.35495,0.03335 0.35171,0.0447 0.12382,-0.418 -0.31932,-0.15405 -0.31585,-0.16536 0.12234,-0.40015 0.35432,0.03954 0.35087,0.05084 0.13109,-0.41578 -0.31658,-0.1596 -0.31292,-0.17084 0.12931,-0.39796 0.35357,0.04572 0.34993,0.05695 0.13833,-0.41342 -0.31374,-0.16511 -0.30989,-0.17627 0.13623,-0.39564 0.35272,0.05188 0.34888,0.06305 0.14553,-0.41095 -0.31082,-0.17055 -0.30676,-0.18166 0.14311,-0.3932 0.35176,0.05803 0.34773,0.06913 0.15268,-0.40834 -0.30779,-0.17596 -0.30355,-0.18698 0.14995,-0.39065 0.3507,0.06416 0.34647,0.07519 0.15978,-0.40562 -0.30468,-0.1813 -0.30023,-0.19225 0.15674,-0.38796 0.34953,0.07027 0.3451,0.08122 0.16684,-0.40277 -0.30147,-0.18659 -0.29684,-0.19746 0.1635,-0.38517 0.34824,0.07636 0.34364,0.08723 0.17384,-0.39979 -0.29816,-0.19182 -0.29335,-0.20262 0.17019,-0.38226 0.34686,0.08243 0.34206,0.09322 0.18079,-0.3967 -0.29477,-0.197 -0.28977,-0.2077 0.17684,-0.37923 0.34537,0.08846 0.34038,0.09918 0.18768,-0.39349 -0.29128,-0.20211 -0.2861,-0.21272 0.18343,-0.37609 0.34377,0.09448 0.3386,0.1051 0.19452,-0.39015 -0.28771,-0.20717 -0.28234,-0.21768 0.18997,-0.37283 0.34207,0.10046 0.33671,0.111 0.2013,-0.3867 -0.28405,-0.21215 -0.2785,-0.22258 0.19644,-0.36946 0.34027,0.10642 0.33472,0.11685 0.20802,-0.38312 -0.28031,-0.21708 -0.27457,-0.22741 0.20286,-0.36597 0.33836,0.11234 0.33263,0.12268 0.21467,-0.37944 -0.27647,-0.22193 -0.27056,-0.23217 0.20922,-0.36238 0.33634,0.11823 0.33044,0.12847 0.22126,-0.37563 -0.27256,-0.22673 -0.26647,-0.23685 0.21552,-0.35867 0.33422,0.12408 0.32815,0.13421 0.22779,-0.37171 -0.26856,-0.23145 -0.2623,-0.24147 0.22174,-0.35485 0.33201,0.12989 0.32576,0.13992 0.23424,-0.36768 -0.26449,-0.2361 -0.25804,-0.24601 0.2279,-0.35093 0.32969,0.13567 0.32327,0.14559 0.24062,-0.36354 -0.26032,-0.24068 -0.25371,-0.25048 0.23399,-0.3469 0.32727,0.14141 0.32068,0.1512 0.24693,-0.35928 -0.25608,-0.24519 -0.2493,-0.25486 0.24001,-0.34277 0.32475,0.1471 0.31799,0.15677 0.25316,-0.35491 -0.25176,-0.24962 -0.24481,-0.25918 0.24595,-0.33852 0.32214,0.15274 0.3152,0.1623 0.25932,-0.35044 -0.24737,-0.25398 -0.24025,-0.26341 0.25182,-0.33418 0.31943,0.15834 0.31232,0.16778 0.26539,-0.34587 -0.24289,-0.25825 -0.23562,-0.26756 0.25761,-0.32974 0.31662,0.16389 0.30935,0.17321 0.27138,-0.34119 -0.23835,-0.26245 -0.23091,-0.27163 0.26333,-0.32519 0.31371,0.16939 0.30627,0.17858 0.2773,-0.3364 -0.23373,-0.26657 -0.22614,-0.27562 0.26897,-0.32054 0.3107,0.17483 0.30311,0.1839 0.28313,-0.3315 -0.22904,-0.27062 -0.2213,-0.27952 0.27452,-0.3158 0.30761,0.18023 0.29985,0.18916 0.28888,-0.32651 -0.22429,-0.27457 -0.21638,-0.28335 0.27999,-0.31096 0.30441,0.18558 0.29651,0.19436 0.29452,-0.32142 -0.21946,-0.27844 -0.2114,-0.28708 0.28537,-0.30602 0.30113,0.19086 0.29307,0.1995 0.30009,-0.31623 -0.21457,-0.28223 -0.20636,-0.29072 0.29067,-0.301 0.29775,0.19609 0.28955,0.20459 0.30557,-0.31095 -0.20962,-0.28593 -0.20125,-0.29428 0.29588,-0.29588 0.29428,0.20125 0.28593,0.20962 0.31095,-0.30557 -0.20459,-0.28955 -0.19609,-0.29775 0.301,-0.29067 0.29072,0.20636 0.28223,0.21457 0.31623,-0.30009 -0.1995,-0.29307 -0.19086,-0.30113 0.30602,-0.28537 0.28708,0.2114 0.27844,0.21946 0.32142,-0.29452 -0.19436,-0.29651 -0.18558,-0.30441 0.31096,-0.27999 0.28335,0.21638 0.27457,0.22429 0.32651,-0.28888 -0.18916,-0.29985 -0.18023,-0.30761 0.3158,-0.27452 0.27952,0.2213 0.27062,0.22904 0.3315,-0.28313 -0.1839,-0.30311 -0.17483,-0.3107 0.32054,-0.26897 0.27562,0.22614 0.26657,0.23373 0.3364,-0.2773 -0.17858,-0.30627 -0.16939,-0.31371 0.32519,-0.26333 0.27163,0.23091 0.26245,0.23835 0.34119,-0.27138 -0.17321,-0.30935 -0.16389,-0.31662 0.32974,-0.25761 0.26756,0.23562 0.25825,0.24289 0.34587,-0.26539 -0.16778,-0.31232 -0.15834,-0.31943 0.33418,-0.25182 0.26341,0.24025 0.25398,0.24737 0.35044,-0.25932 -0.1623,-0.3152 -0.15274,-0.32214 0.33852,-0.24595 0.25918,0.24481 0.24962,0.25176 0.35491,-0.25316 -0.15677,-0.31799 -0.1471,-0.32475 0.34277,-0.24001 0.25486,0.2493 0.24519,0.25608 0.35928,-0.24693 -0.1512,-0.32068 -0.14141,-0.32727 0.3469,-0.23399 0.25048,0.25371 0.24068,0.26032 0.36354,-0.24062 -0.14559,-0.32327 -0.13567,-0.32969 0.35093,-0.2279 0.24601,0.25804 0.2361,0.26449 0.36768,-0.23424 -0.13992,-0.32576 -0.12989,-0.33201 0.35485,-0.22174 0.24147,0.2623 0.23145,0.26856 0.37171,-0.22779 -0.13421,-0.32815 -0.12408,-0.33422 0.35867,-0.21552 0.23685,0.26647 0.22673,0.27256 0.37563,-0.22126 -0.12847,-0.33044 -0.11823,-0.33634 0.36238,-0.20922 0.23217,0.27056 0.22193,0.27647 0.37944,-0.21467 -0.12268,-0.33263 -0.11234,-0.33836 0.36597,-0.20286 0.22741,0.27457 0.21708,0.28031 0.38312,-0.20802 -0.11685,-0.33472 -0.10642,-0.34027 0.36946,-0.19644 0.22258,0.2785 0.21215,0.28405 0.3867,-0.2013 -0.111,-0.33671 -0.10046,-0.34207 0.37283,-0.18997 0.21768,0.28234 0.20717,0.28771 0.39015,-0.19452 -0.1051,-0.3386 -0.09448,-0.34377 0.37609,-0.18343 0.21272,0.2861 0.20211,0.29128 0.39349,-0.18768 -0.09918,-0.34038 -0.08846,-0.34537 0.37923,-0.17684 0.2077,0.28977 0.197,0.29477 0.3967,-0.18079 -0.09322,-0.34206 -0.08243,-0.34686 0.38226,-0.17019 0.20262,0.29335 0.19182,0.29816 0.39979,-0.17384 -0.08723,-0.34364 -0.07636,-0.34824 0.38517,-0.1635 0.19746,0.29684 0.18659,0.30147 0.40277,-0.16684 -0.08122,-0.3451 -0.07027,-0.34953 0.38796,-0.15674 0.19225,0.30023 0.1813,0.30468 0.40562,-0.15978 -0.07519,-0.34647 -0.06416,-0.3507 0.39065,-0.14995 0.18698,0.30355 0.17596,0.30779 0.40834,-0.15268 -0.06913,-0.34773 -0.05803,-0.35176 0.3932,-0.14311 0.18166,0.30676 0.17055,0.31082 0.41095,-0.14553 -0.06305,-0.34888 -0.05188,-0.35272 0.39564,-0.13623 0.17627,0.30989 0.16511,0.31374 0.41342,-0.13833 -0.05695,-0.34993 -0.04572,-0.35357 0.39796,-0.12931 0.17084,0.31292 0.1596,0.31658 0.41578,-0.13109 -0.05084,-0.35087 -0.03954,-0.35432 0.40015,-0.12234 0.16536,0.31585 0.15405,0.31932 0.418,-0.12382 -0.0447,-0.35171 -0.03335,-0.35495 0.40222,-0.11534 0.15982,0.31869 0.14846,0.32196 0.4201,-0.11651 -0.03857,-0.35243 -0.02715,-0.35548 0.40418,-0.1083 0.15423,0.32143 0.14282,0.3245 0.42207,-0.10915 -0.03241,-0.35306 -0.02094,-0.3559 0.40601,-0.10123 0.14859,0.32408 0.13713,0.32694 0.42391,-0.10177 -0.02624,-0.35357 -0.01472,-0.35621 0.40771,-0.09413 0.14291,0.32662 0.13141,0.32928 0.42562,-0.09435 -0.02006,-0.35397 -0.0085,-0.35642 0.40929,-0.08699 0.1372,0.32906 0.12564,0.33152 0.4272,-0.08691 -0.01389,-0.35426 -0.0023,-0.35651 0.41074,-0.07985 0.13144,0.33141 0.11983,0.33367 0.42865,-0.07945 -0.0077,-0.35445 0.0039,-0.35649 0.41208,-0.07266 0.12563,0.33365 0.11399,0.33571 0.42998,-0.07196 -0.0015,-0.35453 0.01016,-0.35637 0.41328,-0.06546 0.11979,0.33579 0.10812,0.33765 0.43116,-0.06444 0.00468,-0.3545 0.01637,-0.35614 0.41437,-0.05824 0.1139,0.33783 0.10221,0.33948 0.43222,-0.0569 0.01086,-0.35437 0.02259,-0.3558 0.41532,-0.05099 0.10799,0.33976 0.09627,0.34122 0.43315,-0.04935 0.01705,-0.35413 0.02879,-0.35535 0.41614,-0.04374 0.10205,0.3416 0.0903,0.34285 0.43395,-0.04179 0.02322,-0.35377 0.03499,-0.3548 0.41684,-0.03647 0.09607,0.34333 0.0843,0.34437 0.43461,-0.03421 0.0294,-0.35331 0.04117,-0.35413 0.41742,-0.02919 0.09006,0.34495 0.07828,0.34579 0.43514,-0.02661 0.03556,-0.35275 0.04735,-0.35336 0.41786,-0.0219 0.08403,0.34647 0.07223,0.3471 0.43554,-0.01901 0.04171,-0.35208 0.05351,-0.35248 0.41818,-0.0146 0.07797,0.34789 0.06616,0.3483 0.43581,-0.01141 0.04784,-0.35129 0.05965,-0.35149 0.41838,-0.0073 0.07188,0.34919 0.06008,0.34941 0.43593,-0.0038 0.05397,-0.35041 0.06578,-0.35039 h 0.41844 l 0.06578,0.35039 0.05397,0.35041 0.43593,0.0038 0.06008,-0.34941 0.07188,-0.34919 0.41838,0.0073 0.05965,0.35149 0.04784,0.35129 0.43581,0.01141 0.06616,-0.3483 0.07797,-0.34789 0.41818,0.0146 0.05351,0.35248 0.04171,0.35208 0.43554,0.01901 0.07223,-0.3471 0.08403,-0.34647 0.41786,0.0219 0.04735,0.35336 0.03556,0.35275 0.43514,0.02661 0.07828,-0.34579 0.09006,-0.34495 0.41742,0.02919 0.04117,0.35413 0.0294,0.35331 0.43461,0.03421 0.0843,-0.34437 0.09607,-0.34333 0.41684,0.03647 0.03499,0.3548 0.02322,0.35377 0.43395,0.04179 0.0903,-0.34285 0.10205,-0.3416 0.41614,0.04374 0.02879,0.35535 0.01705,0.35413 0.43315,0.04935 0.09627,-0.34122 0.10799,-0.33976 0.41532,0.05099 0.02259,0.3558 0.01086,0.35437 0.43222,0.0569 0.10221,-0.33948 0.1139,-0.33783 0.41437,0.05824 0.01637,0.35614 0.00468,0.3545 0.43116,0.06444 0.10812,-0.33765 0.11979,-0.33579 0.41328,0.06546 0.01016,0.35637 -0.0015,0.35453 0.42998,0.07196 0.11399,-0.33571 0.12563,-0.33365 0.41208,0.07266 0.0039,0.35649 -0.0077,0.35445 0.42865,0.07945 0.11983,-0.33367 0.13144,-0.33141 0.41074,0.07985 -0.0023,0.35651 -0.01389,0.35426 0.4272,0.08691 0.12564,-0.33152 0.1372,-0.32906 0.40929,0.08699 -0.0085,0.35642 -0.02006,0.35397 0.42562,0.09435 0.13141,-0.32928 0.14291,-0.32662 0.40771,0.09413 -0.01472,0.35621 -0.02624,0.35357 0.42391,0.10177 0.13713,-0.32694 0.14859,-0.32408 0.40601,0.10123 -0.02094,0.3559 -0.03241,0.35306 0.42207,0.10915 0.14282,-0.3245 0.15423,-0.32143 0.40418,0.1083 -0.02715,0.35548 -0.03857,0.35243 0.4201,0.11651 0.14846,-0.32196 0.15982,-0.31869 0.40222,0.11534 -0.03335,0.35495 -0.0447,0.35171 0.418,0.12382 0.15405,-0.31932 0.16536,-0.31585 0.40015,0.12234 -0.03954,0.35432 -0.05084,0.35087 0.41578,0.13109 0.1596,-0.31658 0.17084,-0.31292 0.39796,0.12931 -0.04572,0.35357 -0.05695,0.34993 0.41342,0.13833 0.16511,-0.31374 0.17627,-0.30989 0.39564,0.13623 -0.05188,0.35272 -0.06305,0.34888 0.41095,0.14553 0.17055,-0.31082 0.18166,-0.30676 0.3932,0.14311 -0.05803,0.35176 -0.06913,0.34773 0.40834,0.15268 0.17596,-0.30779 0.18698,-0.30355 0.39065,0.14995 -0.06416,0.3507 -0.07519,0.34647 0.40562,0.15978 0.1813,-0.30468 0.19225,-0.30023 0.38796,0.15674 -0.07027,0.34953 -0.08122,0.3451 0.40277,0.16684 0.18659,-0.30147 0.19746,-0.29684 0.38517,0.1635 -0.07636,0.34824 -0.08723,0.34364 0.39979,0.17384 0.19182,-0.29816 0.20262,-0.29335 0.38226,0.17019 -0.08243,0.34686 -0.09322,0.34206 0.3967,0.18079 0.197,-0.29477 0.2077,-0.28977 0.37923,0.17684 -0.08846,0.34537 -0.09918,0.34038 0.39349,0.18768 0.20211,-0.29128 0.21272,-0.2861 0.37609,0.18343 -0.09448,0.34377 -0.1051,0.3386 0.39015,0.19452 0.20717,-0.28771 0.21768,-0.28234 0.37283,0.18997 -0.10046,0.34207 -0.111,0.33671 0.3867,0.2013 0.21215,-0.28405 0.22258,-0.2785 0.36946,0.19644 -0.10642,0.34027 -0.11685,0.33472 0.38312,0.20802 0.21708,-0.28031 0.22741,-0.27457 0.36597,0.20286 -0.11234,0.33836 -0.12268,0.33263 0.37944,0.21467 0.22193,-0.27647 0.23217,-0.27056 0.36238,0.20922 -0.11823,0.33634 -0.12847,0.33044 0.37563,0.22126 0.22673,-0.27256 0.23685,-0.26647 0.35867,0.21552 -0.12408,0.33422 -0.13421,0.32815 0.37171,0.22779 0.23145,-0.26856 0.24147,-0.2623 0.35485,0.22174 -0.12989,0.33201 -0.13992,0.32576 0.36768,0.23424 0.2361,-0.26449 0.24601,-0.25804 0.35093,0.2279 -0.13567,0.32969 -0.14559,0.32327 0.36354,0.24062 0.24068,-0.26032 0.25048,-0.25371 0.3469,0.23399 -0.14141,0.32727 -0.1512,0.32068 0.35928,0.24693 0.24519,-0.25608 0.25486,-0.2493 0.34277,0.24001 -0.1471,0.32475 -0.15677,0.31799 0.35491,0.25316 0.24962,-0.25176 0.25918,-0.24481 0.33852,0.24595 -0.15274,0.32214 -0.1623,0.3152 0.35044,0.25932 0.25398,-0.24737 0.26341,-0.24025 0.33418,0.25182 -0.15834,0.31943 -0.16778,0.31232 0.34587,0.26539 0.25825,-0.24289 0.26756,-0.23562 0.32974,0.25761 -0.16389,0.31662 -0.17321,0.30935 0.34119,0.27138 0.26245,-0.23835 0.27163,-0.23091 0.32519,0.26333 -0.16939,0.31371 -0.17858,0.30627 0.3364,0.2773 0.26657,-0.23373 0.27562,-0.22614 0.32054,0.26897 -0.17483,0.3107 -0.1839,0.30311 0.3315,0.28313 0.27062,-0.22904 0.27952,-0.2213 0.3158,0.27452 -0.18023,0.30761 -0.18916,0.29985 0.32651,0.28888 0.27457,-0.22429 0.28335,-0.21638 0.31096,0.27999 -0.18558,0.30441 -0.19436,0.29651 0.32142,0.29452 0.27844,-0.21946 0.28708,-0.2114 0.30602,0.28537 -0.19086,0.30113 -0.1995,0.29307 0.31623,0.30009 0.28223,-0.21457 0.29072,-0.20636 0.301,0.29067 -0.19609,0.29775 -0.20459,0.28955 0.31095,0.30557 0.28593,-0.20962 0.29428,-0.20125 0.29588,0.29588 -0.20125,0.29428 -0.20962,0.28593 0.30557,0.31095 0.28955,-0.20459 0.29775,-0.19609 0.29067,0.301 -0.20636,0.29072 -0.21457,0.28223 0.30009,0.31623 0.29307,-0.1995 0.30113,-0.19086 0.28537,0.30602 -0.2114,0.28708 -0.21946,0.27844 0.29452,0.32142 0.29651,-0.19436 0.30441,-0.18558 0.27999,0.31096 -0.21638,0.28335 -0.22429,0.27457 0.28888,0.32651 0.29985,-0.18916 0.30761,-0.18023 0.27452,0.3158 -0.2213,0.27952 -0.22904,0.27062 0.28313,0.3315 0.30311,-0.1839 0.3107,-0.17483 0.26897,0.32054 -0.22614,0.27562 -0.23373,0.26657 0.2773,0.3364 0.30627,-0.17858 0.31371,-0.16939 0.26333,0.32519 -0.23091,0.27163 -0.23835,0.26245 0.27138,0.34119 0.30935,-0.17321 0.31662,-0.16389 0.25761,0.32974 -0.23562,0.26756 -0.24289,0.25825 0.26539,0.34587 0.31232,-0.16778 0.31943,-0.15834 0.25182,0.33418 -0.24025,0.26341 -0.24737,0.25398 0.25932,0.35044 0.3152,-0.1623 0.32214,-0.15274 0.24595,0.33852 -0.24481,0.25918 -0.25176,0.24962 0.25316,0.35491 0.31799,-0.15677 0.32475,-0.1471 0.24001,0.34277 -0.2493,0.25486 -0.25608,0.24519 0.24693,0.35928 0.32068,-0.1512 0.32727,-0.14141 0.23399,0.3469 -0.25371,0.25048 -0.26032,0.24068 0.24062,0.36354 0.32327,-0.14559 0.32969,-0.13567 0.2279,0.35093 -0.25804,0.24601 -0.26449,0.2361 0.23424,0.36768 0.32576,-0.13992 0.33201,-0.12989 0.22174,0.35485 -0.2623,0.24147 -0.26856,0.23145 0.22779,0.37171 0.32815,-0.13421 0.33422,-0.12408 0.21552,0.35867 -0.26647,0.23685 -0.27256,0.22673 0.22126,0.37563 0.33044,-0.12847 0.33634,-0.11823 0.20922,0.36238 -0.27056,0.23217 -0.27647,0.22193 0.21467,0.37944 0.33263,-0.12268 0.33836,-0.11234 0.20286,0.36597 -0.27457,0.22741 -0.28031,0.21708 0.20802,0.38312 0.33472,-0.11685 0.34027,-0.10642 0.19644,0.36946 -0.2785,0.22258 -0.28405,0.21215 0.2013,0.3867 0.33671,-0.111 0.34207,-0.10046 0.18997,0.37283 -0.28234,0.21768 -0.28771,0.20717 0.19452,0.39015 0.3386,-0.1051 0.34377,-0.09448 0.18343,0.37609 -0.2861,0.21272 -0.29128,0.20211 0.18768,0.39349 0.34038,-0.09918 0.34537,-0.08846 0.17684,0.37923 -0.28977,0.2077 -0.29477,0.197 0.18079,0.3967 0.34206,-0.09322 0.34686,-0.08243 0.17019,0.38226 -0.29335,0.20262 -0.29816,0.19182 0.17384,0.39979 0.34364,-0.08723 0.34824,-0.07636 0.1635,0.38517 -0.29684,0.19746 -0.30147,0.18659 0.16684,0.40277 0.3451,-0.08122 0.34953,-0.07027 0.15674,0.38796 -0.30023,0.19225 -0.30468,0.1813 0.15978,0.40562 0.34647,-0.07519 0.3507,-0.06416 0.14995,0.39065 -0.30355,0.18698 -0.30779,0.17596 0.15268,0.40834 0.34773,-0.06913 0.35176,-0.05803 0.14311,0.3932 -0.30676,0.18166 -0.31082,0.17055 0.14553,0.41095 0.34888,-0.06305 0.35272,-0.05188 0.13623,0.39564 -0.30989,0.17627 -0.31374,0.16511 0.13833,0.41342 0.34993,-0.05695 0.35357,-0.04572 0.12931,0.39796 -0.31292,0.17084 -0.31658,0.1596 0.13109,0.41578 0.35087,-0.05084 0.35432,-0.03954 0.12234,0.40015 -0.31585,0.16536 -0.31932,0.15405 0.12382,0.418 0.35171,-0.0447 0.35495,-0.03335 0.11534,0.40222 -0.31869,0.15982 -0.32196,0.14846 0.11651,0.4201 0.35243,-0.03857 0.35548,-0.02715 0.1083,0.40418 -0.32143,0.15423 -0.3245,0.14282 0.10915,0.42207 0.35306,-0.03241 0.3559,-0.02094 0.10123,0.40601 -0.32408,0.14859 -0.32694,0.13713 0.10177,0.42391 0.35357,-0.02624 0.35621,-0.01472 0.09413,0.40771 -0.32662,0.14291 -0.32928,0.13141 0.09435,0.42562 0.35397,-0.02006 0.35642,-0.0085 0.08699,0.40929 -0.32906,0.1372 -0.33152,0.12564 0.08691,0.4272 0.35426,-0.01389 0.35651,-0.0023 0.07985,0.41074 -0.33141,0.13144 -0.33367,0.11983 0.07945,0.42865 0.35445,-0.0077 0.35649,0.0039 0.07266,0.41208 -0.33365,0.12563 -0.33571,0.11399 0.07196,0.42998 0.35453,-0.0015 0.35637,0.01016 0.06546,0.41328 -0.33579,0.11979 -0.33765,0.10812 0.06444,0.43116 0.3545,0.00468 0.35614,0.01637 0.05824,0.41437 -0.33783,0.1139 -0.33948,0.10221 0.0569,0.43222 0.35437,0.01086 0.3558,0.02259 0.05099,0.41532 -0.33976,0.10799 -0.34122,0.09627 0.04935,0.43315 0.35413,0.01705 0.35535,0.02879 0.04374,0.41614 -0.3416,0.10205 -0.34285,0.0903 0.04179,0.43395 0.35377,0.02322 0.3548,0.03499 0.03647,0.41684 -0.34333,0.09607 -0.34437,0.0843 0.03421,0.43461 0.35331,0.0294 0.35413,0.04117 0.02919,0.41742 -0.34495,0.09006 -0.34579,0.07828 0.02661,0.43514 0.35275,0.03556 0.35336,0.04735 0.0219,0.41786 -0.34647,0.08403 -0.3471,0.07223 0.01901,0.43554 0.35208,0.04171 0.35248,0.05351 0.0146,0.41818 -0.34789,0.07797 -0.3483,0.06616 0.01141,0.43581 0.35129,0.04784 0.35149,0.05965 0.0073,0.41838 -0.34919,0.07188 -0.34941,0.06008 z"
         inkscape:connector-curvature="0" />
    </g>
    <g
       transform="translate(103.12525,70.214286)"
       inkscape:label="Gear118"
       id="g5449">
      <path
         inkscape:connector-curvature="0"
         d="m 55.37147,-1.26489 0.96439,0.51491 0.95961,0.56173 v 0.3765 l -0.95961,0.56173 -0.96439,0.51491 -0.01115,0.419 0.93561,0.56551 0.92835,0.61201 -0.02003,0.37596 -0.98815,0.50986 -0.99042,0.46286 -0.03345,0.41781 0.90419,0.61451 0.89447,0.66055 -0.04002,0.37435 -1.01388,0.45655 -1.01366,0.40949 -0.05563,0.41544 0.8702,0.66176 0.85805,0.70722 -0.05989,0.3717 -1.03674,0.40194 -1.03401,0.35496 -0.07767,0.41189 0.83375,0.70713 0.81919,0.75188 -0.07958,0.36799 -1.05667,0.34619 -1.05144,0.29943 -0.09947,0.40717 0.79493,0.7505 0.77801,0.79442 -0.09906,0.36323 -1.0736,0.28946 -1.06588,0.24305 -0.121,0.40129 0.75386,0.79175 0.73463,0.8347 -0.11825,0.35744 -1.08748,0.23192 -1.07731,0.18597 -0.14219,0.39429 0.71065,0.83075 0.68917,0.87261 -0.13711,0.35064 -1.09828,0.17371 -1.08568,0.12837 -0.16297,0.38616 0.66543,0.8674 0.64174,0.90805 -0.15557,0.34285 -1.10597,0.11501 -1.09097,0.0704 -0.18329,0.37695 0.61832,0.90158 0.5925,0.94092 -0.17359,0.33408 -1.11053,0.05599 -1.09317,0.01224 -0.2031,0.36665 0.56947,0.93321 0.54158,0.97113 -0.19113,0.32436 -1.11193,-0.0032 -1.09227,-0.04595 -0.22233,0.35532 0.51899,0.9622 0.48914,0.99857 -0.20813,0.31374 -1.11018,-0.06238 -1.08828,-0.10402 -0.24092,0.34299 0.46704,0.98845 0.43529,1.02319 -0.22452,0.30222 -1.10529,-0.12138 -1.0812,-0.1618 -0.25884,0.32968 0.41378,1.01192 0.38022,1.0449 -0.2403,0.28984 -1.09726,-0.18003 -1.07106,-0.21911 -0.27601,0.31544 0.35933,1.03249 0.32407,1.06367 -0.25538,0.27663 -1.08613,-0.23817 -1.05787,-0.2758 -0.29241,0.3003 0.30387,1.05016 0.267,1.0794 -0.26974,0.26265 -1.07192,-0.29564 -1.0417,-0.33171 -0.30797,0.28431 0.24754,1.06484 0.20918,1.09208 -0.28334,0.24793 -1.05466,-0.35227 -1.02257,-0.38669 -0.32267,0.26752 0.19053,1.07651 0.15075,1.10166 -0.29613,0.2325 -1.03442,-0.4079 -1.00053,-0.44057 -0.33646,0.24997 0.13296,1.08512 0.09191,1.10813 -0.30809,0.2164 -1.01124,-0.46237 -0.97567,-0.49319 -0.34928,0.2317 0.07502,1.09066 0.0328,1.11145 -0.31917,0.1997 -0.9852,-0.51554 -0.94804,-0.54442 -0.36111,0.21279 0.01686,1.09311 -0.0264,1.11162 -0.32934,0.18243 -0.95636,-0.56725 -0.91773,-0.5941 -0.37193,0.19326 -0.04133,1.09246 -0.08553,1.10864 -0.33858,0.16464 -0.92482,-0.61734 -0.8848,-0.6421 -0.38169,0.17319 -0.09942,1.08871 -0.14441,1.10252 -0.34687,0.14639 -0.89065,-0.66569 -0.84937,-0.68829 -0.39037,0.15264 -0.15722,1.08187 -0.20289,1.09327 -0.35416,0.12772 -0.85396,-0.71214 -0.81154,-0.73252 -0.39793,0.13165 -0.21459,1.07197 -0.26078,1.08092 -0.36046,0.10869 -0.81485,-0.75659 -0.7714,-0.77467 -0.40438,0.11028 -0.27133,1.05904 -0.31794,1.06551 -0.36573,0.08935 -0.77343,-0.79888 -0.72908,-0.81463 -0.40967,0.0886 -0.32731,1.04309 -0.3742,1.04708 -0.36997,0.06976 L 9.70141,55.49932 9.01672,54.64704 8.60291,54.71371 8.22055,55.7379 7.79115,56.76358 7.41799,56.81355 6.73386,55.93699 6.09551,55.04948 5.67873,55.09403 5.24241,56.09642 4.75903,57.09779 4.38374,57.12783 3.74723,56.2161 3.15701,55.29587 2.73846,55.31818 2.2494,56.29593 1.71341,57.27015 1.33706,57.28018 0.74998,56.33586 0.20957,55.38552 h -0.41914 l -0.54041,0.95034 -0.58708,0.94432 -0.37635,-0.01003 -0.53599,-0.97422 -0.48906,-0.97775 -0.41855,-0.02231 -0.59022,0.92023 -0.63651,0.91173 -0.37529,-0.03004 -0.48338,-1.00137 -0.43632,-1.00239 -0.41678,-0.04455 -0.63835,0.88751 -0.68413,0.87656 -0.37316,-0.04997 -0.4294,-1.02568 -0.38236,-1.02419 -0.41381,-0.06667 -0.68469,0.85228 -0.72981,0.83891 -0.36997,-0.06976 -0.3742,-1.04708 -0.32731,-1.04309 -0.40967,-0.0886 -0.72908,0.81463 -0.77343,0.79888 -0.36573,-0.08935 -0.31794,-1.06551 -0.27133,-1.05904 -0.40438,-0.11028 -0.7714,0.77467 -0.81485,0.75659 -0.36046,-0.10869 -0.26078,-1.08092 -0.21459,-1.07197 -0.39793,-0.13165 -0.81154,0.73252 -0.85396,0.71214 -0.35416,-0.12772 -0.20289,-1.09327 -0.15722,-1.08187 -0.39037,-0.15264 -0.84937,0.68829 -0.89065,0.66569 -0.34687,-0.14639 -0.14441,-1.10252 -0.09942,-1.08871 -0.38169,-0.17319 -0.8848,0.6421 -0.92482,0.61734 -0.33858,-0.16464 -0.08553,-1.10864 -0.04133,-1.09246 -0.37193,-0.19326 -0.91773,0.5941 -0.95636,0.56725 -0.32934,-0.18243 -0.0264,-1.11162 0.01686,-1.09311 -0.36111,-0.21279 -0.94804,0.54442 -0.9852,0.51554 -0.31917,-0.1997 0.0328,-1.11145 0.07502,-1.09066 -0.34928,-0.2317 -0.97567,0.49319 -1.01124,0.46237 -0.30809,-0.2164 0.09191,-1.10813 0.13296,-1.08512 -0.33646,-0.24997 -1.00053,0.44057 -1.03442,0.4079 -0.29613,-0.2325 0.15075,-1.10166 0.19053,-1.07651 -0.32267,-0.26752 -1.02257,0.38669 -1.05466,0.35227 -0.28334,-0.24793 0.20918,-1.09208 0.24754,-1.06484 -0.30797,-0.28431 -1.0417,0.33171 -1.07192,0.29564 -0.26974,-0.26265 0.267,-1.0794 0.30387,-1.05016 -0.29241,-0.3003 -1.05787,0.2758 -1.08613,0.23817 -0.25538,-0.27663 0.32407,-1.06367 0.35933,-1.03249 -0.27601,-0.31544 -1.07106,0.21911 -1.09726,0.18003 -0.2403,-0.28984 0.38022,-1.0449 0.41378,-1.01192 -0.25884,-0.32968 -1.0812,0.1618 -1.10529,0.12138 -0.22452,-0.30222 0.43529,-1.02319 0.46704,-0.98845 -0.24092,-0.34299 -1.08828,0.10402 -1.11018,0.06238 -0.20813,-0.31374 0.48914,-0.99857 0.51899,-0.9622 -0.22233,-0.35532 -1.09227,0.04595 -1.11193,0.0032 -0.19113,-0.32436 0.54158,-0.97113 0.56947,-0.93321 -0.2031,-0.36665 -1.09317,-0.01224 -1.11053,-0.05599 -0.17359,-0.33408 0.5925,-0.94092 0.61832,-0.90158 -0.18329,-0.37695 -1.09097,-0.0704 -1.10597,-0.11501 -0.15557,-0.34285 0.64174,-0.90805 0.66543,-0.8674 -0.16297,-0.38616 -1.08568,-0.12837 -1.09828,-0.17371 -0.13711,-0.35064 0.68917,-0.87261 0.71065,-0.83075 -0.14219,-0.39429 -1.07731,-0.18597 -1.08748,-0.23192 -0.11825,-0.35744 0.73463,-0.8347 0.75386,-0.79175 -0.121,-0.40129 -1.06588,-0.24305 -1.0736,-0.28946 -0.09906,-0.36323 0.77801,-0.79442 0.79493,-0.7505 -0.09947,-0.40717 -1.05144,-0.29943 -1.05667,-0.34619 -0.07958,-0.36799 0.81919,-0.75188 0.83375,-0.70713 -0.07767,-0.41189 -1.03401,-0.35496 -1.03674,-0.40194 -0.05989,-0.3717 0.85805,-0.70722 0.8702,-0.66176 -0.05563,-0.41544 -1.01366,-0.40949 -1.01388,-0.45655 -0.04002,-0.37435 0.89447,-0.66055 0.90419,-0.61451 -0.03345,-0.41781 -0.99042,-0.46286 -0.98815,-0.50986 -0.02003,-0.37596 0.92835,-0.61201 0.93561,-0.56551 -0.01115,-0.419 -0.96439,-0.51491 -0.95961,-0.56173 v -0.3765 l 0.95961,-0.56173 0.96439,-0.51491 0.01115,-0.419 -0.93561,-0.56551 -0.92835,-0.61201 0.02003,-0.37596 0.98815,-0.50986 0.99042,-0.46286 0.03345,-0.41781 -0.90419,-0.61451 -0.89447,-0.66055 0.04002,-0.37435 1.01388,-0.45655 1.01366,-0.40949 0.05563,-0.41544 -0.8702,-0.66176 -0.85805,-0.70722 0.05989,-0.3717 1.03674,-0.40194 1.03401,-0.35496 0.07767,-0.41189 -0.83375,-0.70713 -0.81919,-0.75188 0.07958,-0.36799 1.05667,-0.34619 1.05144,-0.29943 0.09947,-0.40717 -0.79493,-0.7505 -0.77801,-0.79442 0.09906,-0.36323 1.0736,-0.28946 1.06588,-0.24305 0.121,-0.40129 -0.75386,-0.79175 -0.73463,-0.8347 0.11825,-0.35744 1.08748,-0.23192 1.07731,-0.18597 0.14219,-0.39429 -0.71065,-0.83075 -0.68917,-0.87261 0.13711,-0.35064 1.09828,-0.17371 1.08568,-0.12837 0.16297,-0.38616 -0.66543,-0.8674 -0.64174,-0.90805 0.15557,-0.34285 1.10597,-0.11501 1.09097,-0.0704 0.18329,-0.37695 -0.61832,-0.90158 -0.5925,-0.94092 0.17359,-0.33408 1.11053,-0.05599 1.09317,-0.01224 0.2031,-0.36665 -0.56947,-0.93321 -0.54158,-0.97113 0.19113,-0.32436 1.11193,0.0032 1.09227,0.04595 0.22233,-0.35532 -0.51899,-0.9622 -0.48914,-0.99857 0.20813,-0.31374 1.11018,0.06238 1.08828,0.10402 0.24092,-0.34299 -0.46704,-0.98845 -0.43529,-1.02319 0.22452,-0.30222 1.10529,0.12138 1.0812,0.1618 0.25884,-0.32968 -0.41378,-1.01192 -0.38022,-1.0449 0.2403,-0.28984 1.09726,0.18003 1.07106,0.21911 0.27601,-0.31544 -0.35933,-1.03249 -0.32407,-1.06367 0.25538,-0.27663 1.08613,0.23817 1.05787,0.2758 0.29241,-0.3003 -0.30387,-1.05016 -0.267,-1.0794 0.26974,-0.26265 1.07192,0.29564 1.0417,0.33171 0.30797,-0.28431 -0.24754,-1.06484 -0.20918,-1.09208 0.28334,-0.24793 1.05466,0.35227 1.02257,0.38669 0.32267,-0.26752 -0.19053,-1.07651 -0.15075,-1.10166 0.29613,-0.2325 1.03442,0.4079 1.00053,0.44057 0.33646,-0.24997 -0.13296,-1.08512 -0.09191,-1.10813 0.30809,-0.2164 1.01124,0.46237 0.97567,0.49319 0.34928,-0.2317 -0.07502,-1.09066 -0.0328,-1.11145 0.31917,-0.1997 0.9852,0.51554 0.94804,0.54442 0.36111,-0.21279 -0.01686,-1.09311 0.0264,-1.11162 0.32934,-0.18243 0.95636,0.56725 0.91773,0.5941 0.37193,-0.19326 0.04133,-1.09246 0.08553,-1.10864 0.33858,-0.16464 0.92482,0.61734 0.8848,0.6421 0.38169,-0.17319 0.09942,-1.08871 0.14441,-1.10252 0.34687,-0.14639 0.89065,0.66569 0.84937,0.68829 0.39037,-0.15264 0.15722,-1.08187 0.20289,-1.09327 0.35416,-0.12772 0.85396,0.71214 0.81154,0.73252 0.39793,-0.13165 0.21459,-1.07197 0.26078,-1.08092 0.36046,-0.10869 0.81485,0.75659 0.7714,0.77467 0.40438,-0.11028 0.27133,-1.05904 0.31794,-1.06551 0.36573,-0.08935 0.77343,0.79888 0.72908,0.81463 0.40967,-0.0886 0.32731,-1.04309 0.3742,-1.04708 0.36997,-0.06976 0.72981,0.83891 0.68469,0.85228 0.41381,-0.06667 0.38236,-1.02419 0.4294,-1.02568 0.37316,-0.04997 0.68413,0.87656 0.63835,0.88751 0.41678,-0.04455 0.43632,-1.00239 0.48338,-1.00137 0.37529,-0.03004 0.63651,0.91173 0.59022,0.92023 0.41855,-0.02231 0.48906,-0.97775 0.53599,-0.97422 0.37635,-0.01003 0.58708,0.94432 0.54041,0.95034 h 0.41914 l 0.54041,-0.95034 0.58708,-0.94432 0.37635,0.01003 0.53599,0.97422 0.48906,0.97775 0.41855,0.02231 0.59022,-0.92023 0.63651,-0.91173 0.37529,0.03004 0.48338,1.00137 0.43632,1.00239 0.41678,0.04455 0.63835,-0.88751 0.68413,-0.87656 0.37316,0.04997 0.4294,1.02568 0.38236,1.02419 0.41381,0.06667 0.68469,-0.85228 0.72981,-0.83891 0.36997,0.06976 0.3742,1.04708 0.32731,1.04309 0.40967,0.0886 0.72908,-0.81463 0.77343,-0.79888 0.36573,0.08935 0.31794,1.06551 0.27133,1.05904 0.40438,0.11028 0.7714,-0.77467 0.81485,-0.75659 0.36046,0.10869 0.26078,1.08092 0.21459,1.07197 0.39793,0.13165 0.81154,-0.73252 0.85396,-0.71214 0.35416,0.12772 0.20289,1.09327 0.15722,1.08187 0.39037,0.15264 0.84937,-0.68829 0.89065,-0.66569 0.34687,0.14639 0.14441,1.10252 0.09942,1.08871 0.38169,0.17319 0.8848,-0.6421 0.92482,-0.61734 0.33858,0.16464 0.08553,1.10864 0.04133,1.09246 0.37193,0.19326 0.91773,-0.5941 0.95636,-0.56725 0.32934,0.18243 0.0264,1.11162 -0.01686,1.09311 0.36111,0.21279 0.94804,-0.54442 0.9852,-0.51554 0.31917,0.1997 -0.0328,1.11145 -0.07502,1.09066 0.34928,0.2317 0.97567,-0.49319 1.01124,-0.46237 0.30809,0.2164 -0.09191,1.10813 -0.13296,1.08512 0.33646,0.24997 1.00053,-0.44057 1.03442,-0.4079 0.29613,0.2325 -0.15075,1.10166 -0.19053,1.07651 0.32267,0.26752 1.02257,-0.38669 1.05466,-0.35227 0.28334,0.24793 -0.20918,1.09208 -0.24754,1.06484 0.30797,0.28431 1.0417,-0.33171 1.07192,-0.29564 0.26974,0.26265 -0.267,1.0794 -0.30387,1.05016 0.29241,0.3003 1.05787,-0.2758 1.08613,-0.23817 0.25538,0.27663 -0.32407,1.06367 -0.35933,1.03249 0.27601,0.31544 1.07106,-0.21911 1.09726,-0.18003 0.2403,0.28984 -0.38022,1.0449 -0.41378,1.01192 0.25884,0.32968 1.0812,-0.1618 1.10529,-0.12138 0.22452,0.30222 -0.43529,1.02319 -0.46704,0.98845 0.24092,0.34299 1.08828,-0.10402 1.11018,-0.06238 0.20813,0.31374 -0.48914,0.99857 -0.51899,0.9622 0.22233,0.35532 1.09227,-0.04595 1.11193,-0.0032 0.19113,0.32436 -0.54158,0.97113 -0.56947,0.93321 0.2031,0.36665 1.09317,0.01224 1.11053,0.05599 0.17359,0.33408 -0.5925,0.94092 -0.61832,0.90158 0.18329,0.37695 1.09097,0.0704 1.10597,0.11501 0.15557,0.34285 -0.64174,0.90805 -0.66543,0.8674 0.16297,0.38616 1.08568,0.12837 1.09828,0.17371 0.13711,0.35064 -0.68917,0.87261 -0.71065,0.83075 0.14219,0.39429 1.07731,0.18597 1.08748,0.23192 0.11825,0.35744 -0.73463,0.8347 -0.75386,0.79175 0.121,0.40129 1.06588,0.24305 1.0736,0.28946 0.09906,0.36323 -0.77801,0.79442 -0.79493,0.7505 0.09947,0.40717 1.05144,0.29943 1.05667,0.34619 0.07958,0.36799 -0.81919,0.75188 -0.83375,0.70713 0.07767,0.41189 1.03401,0.35496 1.03674,0.40194 0.05989,0.3717 -0.85805,0.70722 -0.8702,0.66176 0.05563,0.41544 1.01366,0.40949 1.01388,0.45655 0.04002,0.37435 -0.89447,0.66055 -0.90419,0.61451 0.03345,0.41781 0.99042,0.46286 0.98815,0.50986 0.02003,0.37596 -0.92835,0.61201 -0.93561,0.56551 z"
         style="fill:none;stroke:#000000;stroke-width:0.26458332"
         id="path5447" />
    </g>
    <ellipse
       style="fill:none;stroke:#000000;stroke-width:0.1;stroke-miterlimit:4;stroke-dasharray:none;stroke-opacity:1"
       id="path979"
       cx="101.88234"
       cy="10.346505"
       rx="2.9310675"
       ry="0.93106735" />
    <ellipse
       ry="0.93106735"
       rx="2.9310675"
       cy="31.32995"
       cx="82.3564"
       id="ellipse981"
       style="fill:none;stroke:#000000;stroke-width:0.1;stroke-miterlimit:4;stroke-dasharray:none;stroke-opacity:1"
       transform="rotate(-12.525674)" />
    <ellipse
       transform="matrix(-0.97619892,-0.21687707,-0.21687707,0.97619892,0,0)"
       style="fill:none;stroke:#000000;stroke-width:0.1;stroke-miterlimit:4;stroke-dasharray:none;stroke-opacity:1"
       id="ellipse983"
       cx="-118.8693"
       cy="-13.375348"
       rx="2.9310675"
       ry="0.93106735" />
    <ellipse
       ry="0.93106735"
       rx="2.9310675"
       cy="-130.04694"
       cx="101.88234"
       id="ellipse985"
       style="fill:none;stroke:#000000;stroke-width:0.1;stroke-miterlimit:4;stroke-dasharray:none;stroke-opacity:1"
       transform="scale(1,-1)" />
    <ellipse
       transform="matrix(0.97619892,0.21687707,0.21687707,-0.97619892,0,0)"
       style="fill:none;stroke:#000000;stroke-width:0.1;stroke-miterlimit:4;stroke-dasharray:none;stroke-opacity:1"
       id="ellipse987"
       cx="112.80379"
       cy="-105.72181"
       rx="2.9310675"
       ry="0.93106735" />
    <ellipse
       ry="0.93106735"
       rx="2.9310675"
       cy="-150.427"
       cx="-88.421898"
       id="ellipse989"
       style="fill:none;stroke:#000000;stroke-width:0.1;stroke-miterlimit:4;stroke-dasharray:none;stroke-opacity:1"
       transform="rotate(167.47433)" />
    <g
       id="g1009"
       transform="rotate(90,132.74949,40.613509)">
      <ellipse
         style="fill:none;stroke:#000000;stroke-width:0.1;stroke-miterlimit:4;stroke-dasharray:none;stroke-opacity:1"
         id="ellipse991"
         cx="161.14854"
         cy="10.346505"
         rx="2.9310675"
         ry="0.93106735" />
      <ellipse
         ry="0.93106735"
         rx="2.9310675"
         cy="44.18364"
         cx="140.21231"
         id="ellipse993"
         style="fill:none;stroke:#000000;stroke-width:0.1;stroke-miterlimit:4;stroke-dasharray:none;stroke-opacity:1"
         transform="rotate(-12.525674)" />
      <ellipse
         transform="matrix(-0.97619892,-0.21687707,-0.21687707,0.97619892,0,0)"
         style="fill:none;stroke:#000000;stroke-width:0.1;stroke-miterlimit:4;stroke-dasharray:none;stroke-opacity:1"
         id="ellipse995"
         cx="-176.72525"
         cy="-26.228855"
         rx="2.9310675"
         ry="0.93106735" />
      <ellipse
         ry="0.93106735"
         rx="2.9310675"
         cy="-130.04694"
         cx="161.14854"
         id="ellipse997"
         style="fill:none;stroke:#000000;stroke-width:0.1;stroke-miterlimit:4;stroke-dasharray:none;stroke-opacity:1"
         transform="scale(1,-1)" />
      <ellipse
         transform="matrix(0.97619892,0.21687707,0.21687707,-0.97619892,0,0)"
         style="fill:none;stroke:#000000;stroke-width:0.1;stroke-miterlimit:4;stroke-dasharray:none;stroke-opacity:1"
         id="ellipse999"
         cx="170.65971"
         cy="-92.868568"
         rx="2.9310675"
         ry="0.93106735" />
      <ellipse
         ry="0.93106735"
         rx="2.9310675"
         cy="-163.28027"
         cx="-146.2778"
         id="ellipse1001"
         style="fill:none;stroke:#000000;stroke-width:0.1;stroke-miterlimit:4;stroke-dasharray:none;stroke-opacity:1"
         transform="rotate(167.47433)" />
    </g>
  </g>
</svg>
